<svg id="Layer_1" data-name="Layer 1" xmlns="http://www.w3.org/2000/svg" viewBox="0 0 437.53 190.63"><defs><style></style></defs><path class="cls-1" d="M481.89,283V258.74A15.38,15.38,0,0,1,482,256a1.42,1.42,0,0,1,1.06-.87,29.9,29.9,0,0,1,3.37.54c4.71.79,9.4,1.69,14.14,2.33a4.68,4.68,0,0,1,4.39,3.76c4.27,13.77,8.7,27.49,13.13,41.21.74,2.31,1.72,4.55,2.6,6.82.17-2.37.44-4.73.51-7.1q.62-22.33,1.17-44.67c.14-5.62.14-5.61,5.69-5.7,4.1-.07,8.2-.18,12.3-.2,2.28,0,2.32.05,2.14,2.32-1.25,16-2.54,32-3.77,47.93-.79,10.2-1.52,20.4-2.25,30.6-.26,3.55-.23,3.57-3.79,4.39S525.5,338.8,522,339.8c-1.9.54-2.56-.08-3.24-1.7-4.07-9.74-8.22-19.45-12.35-29.17q-2.6-6.12-5.22-12.22a6.3,6.3,0,0,0-.72-1c-.22.37-.58.72-.63,1.11-.35,3.28-.6,6.57-1,9.84-.78,7.47-1.79,14.91-4.2,22.05a50.18,50.18,0,0,1-4,9c-7.16,12.33-21.07,11.89-29.45,6.93-7.51-4.44-11.26-11.4-12.83-19.63a67.87,67.87,0,0,1-.76-10.5,12.13,12.13,0,0,1,3.82-9.19c5-4.92,11-6.61,17.86-5.33,1.43.27,1.66.61,1,1.94a36.34,36.34,0,0,0-4.12,20.1,55.06,55.06,0,0,0,2,10,12.38,12.38,0,0,0,2.46,4.42c2.06,2.49,4.42,2.29,6-.58a19.63,19.63,0,0,0,2.36-6.34c1.07-7.29,2.14-14.61,2.65-22,.56-8.16.49-16.37.7-24.55Z" transform="translate(-281.24 -204.69)"/><path class="cls-1" d="M281.25,299.75V209.64c0-.79,0-1.59,0-2.38.07-2.72.07-2.71,2.67-2.48q26.2,2.26,52.42,4.53c16.67,1.46,33.34,3,50,4.49,11.68,1,23.37,2,35.06,3,14.18,1.25,28.35,2.57,42.53,3.82,11.69,1,23.38,2,35.06,3,2,.17,4,.55,6,.83.13,2,.35,4,.37,6,.06,4.33,0,8.65,0,13,0,2.69-.05,2.69-2.56,2.73-3.09,0-3.1,0-3.11-3.2s0-6.37,0-9.56c0-4.53.38-3.63-3.83-4.14-5.88-.7-11.8-1.09-17.69-1.62q-17.87-1.6-35.73-3.2c-8.74-.78-17.47-1.52-26.21-2.28l-35.05-3.05q-14-1.22-27.91-2.45-17.52-1.55-35.05-3.13c-8.51-.75-17-1.51-25.53-2.23-1.24-.11-2.5,0-3.75-.08s-1.94.35-1.84,1.72c.06.79,0,1.59,0,2.39V386c0,3,0,3.05,2.88,2.8q18.38-1.59,36.75-3.25L352,383.31l36.41-3.24c9.08-.79,18.16-1.53,27.23-2.34,11.46-1,22.91-2.09,34.36-3.1,9-.8,17.93-1.53,26.9-2.29,6.24-.53,12.48-1,18.72-1.61,4.17-.39,4.16-.46,4.16-4.52,0-3.3,0-6.6,0-9.89,0-2.46.07-2.46,2.43-2.52.46,0,.91,0,1.37,0,1.22-.08,1.9.31,1.89,1.7q-.06,9.22,0,18.43c0,1.31-.56,1.75-1.83,1.85-7.83.64-15.66,1.35-23.48,2L445.09,381l-33.69,3q-17.86,1.59-35.74,3.18l-25.86,2.28-35.73,3.18q-15.31,1.35-30.63,2.69c-2,.17-2.08.05-2.18-2,0-.91,0-1.82,0-2.73Z" transform="translate(-281.24 -204.69)"/><path class="cls-1" d="M348.52,307v-2.05c0-4.95,0-5,4.78-5.29q9.88-.69,19.77-1.35c2.59-.18,2.58-.15,2.83,2.41.8,8.38,1.55,16.75,2.45,25.12a4.39,4.39,0,0,1-1.31,3.64c-10,11.43-22.63,16-37.41,12.76C325,339,315.54,329.52,311.8,315.15a51,51,0,0,1,6.29-41c7.77-12.55,19.62-16.88,34.46-14.72a33.05,33.05,0,0,1,15.32,6.25c5.79,4.34,8.23,10.41,9.14,17.27a2.39,2.39,0,0,1-.95,1.89c-4.61,2.7-9.3,5.28-13.94,7.93-1.16.66-1.29.05-1.42-.9-.34-2.47-.69-4.95-1.16-7.39a17.2,17.2,0,0,0-1.18-3.55c-2.84-6.42-8.37-9-15.11-6.95a17.69,17.69,0,0,0-10,7.3,34.19,34.19,0,0,0-5.6,18.34c-.21,6.28.34,12.56,3.09,18.33a31.49,31.49,0,0,0,5.12,8c6.43,6.9,17.86,7.51,25.58-1.33a3.55,3.55,0,0,0,.71-2.45c-.29-2.94-.84-5.85-1.14-8.79-.17-1.65-1-1.74-2.33-1.46-2.77.6-5.57,1.12-8.35,1.72-1.34.29-1.89-.12-1.83-1.52.07-1.71,0-3.41,0-5.12Z" transform="translate(-281.24 -204.69)"/><path class="cls-1" d="M441.92,305.87c-.34,8.5-1.85,16.72-7.34,23.64-6.31,8-14.73,11.17-24.73,10.06a36.32,36.32,0,0,1-8.9-2.18A21.21,21.21,0,0,1,390.42,329c-8.46-13.32-9.76-27.26-2.37-41.39a31.55,31.55,0,0,1,33.73-16c7.71,1.44,12.78,6.1,16.06,13S441.55,298.54,441.92,305.87Zm-18.33.51c0-5.26-.4-10.46-2.76-15.29-3.43-7-10.06-7.82-14.83-1.59a22.09,22.09,0,0,0-3.62,7.24c-2.47,8.57-1.61,17.1,1.26,25.43a16.2,16.2,0,0,0,2.69,4.7c2.94,3.74,7.32,4.12,10.65.73a20.56,20.56,0,0,0,3.87-5.91A35.93,35.93,0,0,0,423.59,306.38Z" transform="translate(-281.24 -204.69)"/><path class="cls-1" d="M550.12,307c-.78-16.27,9.47-30.54,24.45-34.48a31.17,31.17,0,0,1,12.19-.84c8.51,1.16,14.63,5.78,17.76,13.67,5.19,13.08,5.82,26.38-.14,39.43-5.06,11.07-16.59,16.71-28.67,15.21-14-1.73-21.86-11.61-24.59-23.91a29.59,29.59,0,0,1-.61-3.36C550.32,310.72,550.23,308.67,550.12,307ZM590,306.6c0-1.47.09-3,0-4.43a27.16,27.16,0,0,0-3-11.44c-3.28-5.91-9.11-6.63-13.75-1.7a18.88,18.88,0,0,0-4.42,8.35c-2.23,8.51-1.48,16.91,1.34,25.13a16.87,16.87,0,0,0,3.11,5.23c2.77,3.26,6.86,3.58,9.92.61a20.71,20.71,0,0,0,4.17-6.11A33.45,33.45,0,0,0,590,306.6Z" transform="translate(-281.24 -204.69)"/><path class="cls-1" d="M616.73,305.54q.3-15,.62-30c.06-2.71.08-2.77,2.88-2.7q19.63.44,39.26.93l1.36.06c1.09,0,1.7.45,1.57,1.66-.52,4.74-1,9.48-1.51,14.23-.15,1.51-1.07,1.36-2.2,1.15-6.6-1.18-13.22-2.3-19.82-3.45-2.81-.49-2.87-.44-3.1,2.33-.2,2.37-.39,4.75-.66,7.12-.17,1.48.41,2,1.88,2,4.54.16,9.09.44,13.63.68a14.61,14.61,0,0,1,3.05.26,1.83,1.83,0,0,1,1.12,1.32c-.08,2.72-.28,5.45-.54,8.16-.14,1.39-1.34,1-2.15.93-4.89-.26-9.77-.58-14.66-.88-.68,0-1.36-.11-2-.19a1.4,1.4,0,0,0-1.81,1.44c-.45,4.29-.94,8.57-1.44,12.86-.1.89.29,1.26,1.13,1.23,1.6-.06,3.19-.12,4.78-.2l19.77-1.09c.79-.05,1.59,0,2.39-.07,1.24-.09,1.58.46,1.38,1.63-.74,4.36-1.39,8.74-2.16,13.1-.4,2.28-.47,2.33-2.86,2.21q-14.51-.72-29-1.5c-3.07-.16-6.14-.3-9.21-.49-2.18-.13-2.26-.16-2.22-2.43.1-5.9.32-11.81.41-17.72.07-4.2,0-8.41,0-12.61Z" transform="translate(-281.24 -204.69)"/><path class="cls-1" d="M673.66,275.54c-.24-4-.24-4,3.41-3.87q19.45.56,38.93,1.15c2.91.08,3,.12,2.62,2.84s-.73,5.18-1,7.77c-.15,1.27-.78,1.69-2,1.75-2.73.12-5.46.33-8.18.57-2.44.21-2.5.24-2.47,2.52.13,8.76.3,17.51.46,26.26.14,7.73.32,15.46.44,23.19,0,2.59,0,2.54-2.59,2.79-3.39.32-6.78.72-10.18,1.1-2.2.24-2.23.25-2.35-2-.41-8.18-.83-16.35-1.18-24.53-.35-8-.63-15.9-.94-23.86,0-.68-.09-1.36-.09-2,0-1.55-.67-2.23-2.33-2.09-3.06.26-6.14.27-9.2.58-1.64.17-2.31-.37-2.44-1.94C674.26,282.18,673.94,278.67,673.66,275.54Z" transform="translate(-281.24 -204.69)"/></svg>