<svg xmlns="http://www.w3.org/2000/svg" viewBox="0 0 437.53 190.63"><defs><style>.cls-1{fill:#fff;}</style></defs><g id="Layer_2" data-name="Layer 2"><g id="Layer_1-2" data-name="Layer 1"><path class="cls-1" d="M200.65,78.27V54.06a15.38,15.38,0,0,1,.07-2.72,1.42,1.42,0,0,1,1.07-.87,30.1,30.1,0,0,1,3.36.54c4.71.79,9.41,1.68,14.14,2.32a4.67,4.67,0,0,1,4.39,3.77c4.27,13.77,8.71,27.49,13.13,41.21.75,2.31,1.73,4.54,2.6,6.81.18-2.36.44-4.73.51-7.1q.63-22.33,1.17-44.67c.15-5.61.15-5.61,5.7-5.7,4.1-.06,8.2-.17,12.3-.2,2.28,0,2.32,0,2.14,2.33q-1.89,24-3.78,47.92c-.79,10.2-1.52,20.4-2.25,30.61-.26,3.55-.22,3.57-3.79,4.38s-7.15,1.43-10.64,2.42c-1.9.54-2.56-.08-3.24-1.69-4.06-9.75-8.21-19.46-12.34-29.18-1.73-4.07-3.47-8.15-5.23-12.21a5.46,5.46,0,0,0-.72-1c-.21.37-.58.73-.62,1.12-.35,3.27-.61,6.56-1,9.84-.78,7.46-1.79,14.9-4.2,22a48.87,48.87,0,0,1-4,9c-7.16,12.33-21.06,11.9-29.45,6.93-7.51-4.44-11.26-11.4-12.83-19.62a68.09,68.09,0,0,1-.76-10.51,12.1,12.1,0,0,1,3.83-9.18c5-4.93,11-6.62,17.85-5.33,1.43.26,1.66.61,1,1.94a36.33,36.33,0,0,0-4.13,20.1,56.11,56.11,0,0,0,2,10,12.49,12.49,0,0,0,2.46,4.41c2.06,2.49,4.43,2.29,6-.58a19.43,19.43,0,0,0,2.36-6.33c1.08-7.3,2.15-14.62,2.65-22,.56-8.16.5-16.36.7-24.55Z"/><path class="cls-1" d="M0,95.06V5c0-.8,0-1.59,0-2.39C.08-.14.08-.13,2.68.09Q28.9,2.36,55.1,4.62c16.68,1.47,33.35,3,50,4.49,11.69,1,23.38,2,35.06,3,14.18,1.25,28.36,2.58,42.53,3.82,11.69,1,23.38,2,35.07,3,2,.18,4,.55,6,.84.13,2,.34,4,.37,6,.05,4.32,0,8.64,0,13,0,2.68,0,2.68-2.56,2.72-3.09,0-3.11,0-3.12-3.2s0-6.37,0-9.55c0-4.54.38-3.64-3.83-4.14C208.8,23.89,202.89,23.5,197,23l-35.73-3.2c-8.73-.77-17.47-1.51-26.21-2.27L100,14.45,72.09,12,37,8.87Q24.29,7.73,11.52,6.63c-1.25-.1-2.51,0-3.76-.07S5.82,6.9,5.92,8.28c.06.79,0,1.59,0,2.38V180.29c0,.34,0,.68,0,1,0,3,0,3.05,2.87,2.81q18.38-1.6,36.75-3.25l25.19-2.24q18.2-1.62,36.41-3.24c9.07-.8,18.15-1.54,27.23-2.34,11.45-1,22.9-2.1,34.36-3.11,9-.79,17.93-1.53,26.89-2.29,6.24-.53,12.49-1,18.72-1.6,4.17-.4,4.16-.47,4.17-4.52,0-3.3,0-6.6,0-9.9,0-2.45.06-2.46,2.42-2.51.46,0,.92,0,1.37,0,1.23-.08,1.9.31,1.89,1.71q-.06,9.21,0,18.43c0,1.3-.56,1.74-1.82,1.85-7.84.64-15.66,1.34-23.49,2q-17.52,1.55-35.05,3.13l-33.69,3-35.73,3.18q-12.93,1.14-25.87,2.28-17.87,1.57-35.73,3.18-15.31,1.35-30.63,2.68c-2,.17-2.08.06-2.18-2,0-.91,0-1.82,0-2.73Z"/><path class="cls-1" d="M67.28,102.3c0-.68,0-1.36,0-2,0-5,0-5,4.78-5.3q9.89-.69,19.77-1.35c2.59-.17,2.58-.15,2.83,2.42.8,8.37,1.56,16.75,2.45,25.11a4.35,4.35,0,0,1-1.31,3.65c-10,11.42-22.63,16-37.41,12.75-14.59-3.22-24.09-12.7-27.83-27.07a51.1,51.1,0,0,1,6.29-41c7.77-12.55,19.62-16.87,34.46-14.72A33,33,0,0,1,86.63,61c5.79,4.33,8.24,10.4,9.14,17.27a2.36,2.36,0,0,1-1,1.88c-4.61,2.71-9.3,5.29-13.94,7.93-1.15.66-1.29,0-1.42-.89-.34-2.48-.68-5-1.16-7.4a17.12,17.12,0,0,0-1.18-3.54c-2.84-6.43-8.37-9-15.11-7a17.69,17.69,0,0,0-9.95,7.31A34.17,34.17,0,0,0,46.45,95c-.21,6.28.35,12.56,3.09,18.32a31.41,31.41,0,0,0,5.12,8c6.43,6.9,17.87,7.51,25.58-1.33a3.54,3.54,0,0,0,.71-2.45c-.28-2.94-.84-5.85-1.14-8.79-.17-1.65-1-1.74-2.32-1.46-2.78.61-5.58,1.12-8.36,1.73-1.34.29-1.89-.13-1.83-1.53.08-1.7,0-3.41,0-5.12Z"/><path class="cls-1" d="M160.68,101.19c-.34,8.5-1.85,16.72-7.33,23.64-6.31,8-14.73,11.17-24.74,10.06a36.45,36.45,0,0,1-8.9-2.19,21.25,21.25,0,0,1-10.53-8.38c-8.46-13.32-9.75-27.26-2.36-41.38a31.5,31.5,0,0,1,33.72-16c7.72,1.43,12.79,6.09,16.06,13S160.31,93.85,160.68,101.19Zm-18.32.5c0-5.25-.41-10.46-2.77-15.29-3.42-7-10.05-7.81-14.83-1.59a22.48,22.48,0,0,0-3.62,7.24c-2.47,8.57-1.6,17.1,1.26,25.44a16.81,16.81,0,0,0,2.69,4.7c2.94,3.73,7.32,4.11,10.65.72a20.39,20.39,0,0,0,3.88-5.91A36.21,36.21,0,0,0,142.36,101.69Z"/><path class="cls-1" d="M268.88,102.34c-.78-16.26,9.48-30.53,24.45-34.48A31,31,0,0,1,305.52,67c8.51,1.16,14.64,5.77,17.77,13.67,5.19,13.08,5.81,26.37-.15,39.42-5.05,11.07-16.58,16.72-28.66,15.22-14-1.73-21.87-11.62-24.6-23.92a29.83,29.83,0,0,1-.61-3.35C269.08,106,269,104,268.88,102.34Zm39.92-.42c0-1.48.09-3,0-4.43a27.37,27.37,0,0,0-3-11.45c-3.28-5.9-9.11-6.62-13.75-1.7a18.92,18.92,0,0,0-4.42,8.36c-2.22,8.5-1.47,16.9,1.35,25.12a16.54,16.54,0,0,0,3.1,5.23c2.77,3.26,6.87,3.58,9.92.61a20.89,20.89,0,0,0,4.18-6.1A33.46,33.46,0,0,0,308.8,101.92Z"/><path class="cls-1" d="M335.49,100.85q.31-15,.63-30c.05-2.72.07-2.77,2.87-2.71q19.63.43,39.26.94c.46,0,.91,0,1.37.06,1.09,0,1.69.44,1.56,1.65q-.76,7.11-1.5,14.23c-.16,1.52-1.07,1.36-2.21,1.16-6.6-1.19-13.21-2.31-19.82-3.46-2.81-.48-2.87-.43-3.1,2.33-.2,2.38-.39,4.76-.66,7.12-.16,1.48.41,2,1.88,2,4.55.16,9.09.43,13.64.67a15.38,15.38,0,0,1,3,.27,1.82,1.82,0,0,1,1.11,1.32c-.08,2.72-.28,5.44-.54,8.15-.14,1.4-1.33,1-2.15.93-4.89-.26-9.77-.57-14.65-.87-.68,0-1.37-.11-2-.2a1.4,1.4,0,0,0-1.81,1.44c-.46,4.29-.95,8.58-1.44,12.86-.11.9.28,1.26,1.13,1.23,1.59-.06,3.18-.11,4.77-.2l19.77-1.09c.8,0,1.6,0,2.39-.07,1.24-.09,1.58.46,1.38,1.63-.74,4.37-1.39,8.75-2.16,13.11-.4,2.28-.47,2.32-2.86,2.21-9.66-.48-19.32-1-29-1.5-3.07-.16-6.14-.31-9.2-.49-2.19-.14-2.26-.16-2.23-2.43.11-5.91.32-11.82.41-17.73.07-4.2,0-8.4,0-12.61Z"/><path class="cls-1" d="M392.43,70.85c-.24-3.94-.24-4,3.4-3.86q19.47.56,38.93,1.14c2.91.09,3,.12,2.63,2.85s-.74,5.17-1,7.77c-.15,1.27-.78,1.69-2,1.74-2.73.12-5.45.34-8.17.57-2.45.21-2.51.25-2.47,2.52q.19,13.14.45,26.27c.15,7.73.33,15.46.45,23.19,0,2.58,0,2.54-2.59,2.78-3.4.33-6.79.73-10.18,1.1-2.21.24-2.24.25-2.35-2-.41-8.17-.83-16.35-1.19-24.52-.35-8-.62-15.91-.93-23.86,0-.68-.09-1.36-.1-2,0-1.54-.67-2.22-2.32-2.08-3.06.26-6.15.27-9.2.58-1.64.16-2.32-.38-2.44-2C393,77.49,392.7,74,392.43,70.85Z"/></g></g></svg>